<mxfile host="app.diagrams.net" modified="2020-09-13T12:16:20.911Z" agent="5.0 (Macintosh; Intel Mac OS X 10_15_6) AppleWebKit/537.36 (KHTML, like Gecko) Chrome/87.0.4259.3 Safari/537.36" etag="KAYSatq_D8FRRFHG9Bjx" version="13.6.10" type="github">
  <diagram id="SIKrK5eI--MtJMHvcvKw" name="Page-1">
    <mxGraphModel dx="983" dy="499" grid="0" gridSize="10" guides="1" tooltips="1" connect="1" arrows="1" fold="1" page="1" pageScale="1" pageWidth="827" pageHeight="1169" math="0" shadow="0">
      <root>
        <mxCell id="0" />
        <mxCell id="1" parent="0" />
        <mxCell id="ceYIHfMtp4r3eAE6aNUn-2" value="&lt;font style=&quot;font-size: 14px&quot;&gt;&amp;lt;&amp;lt; interface &amp;gt;&amp;gt;&lt;br&gt;Animal&lt;/font&gt;" style="rounded=0;whiteSpace=wrap;html=1;fillColor=#f5f5f5;strokeColor=#666666;fontColor=#333333;" parent="1" vertex="1">
          <mxGeometry x="481" y="424" width="120" height="40" as="geometry" />
        </mxCell>
        <mxCell id="ceYIHfMtp4r3eAE6aNUn-5" value="" style="endArrow=none;html=1;rounded=1;dashed=1;endFill=0;exitX=0.5;exitY=0;exitDx=0;exitDy=0;jumpStyle=none;startSize=10;fontSize=11;labelBorderColor=none;" parent="1" source="ceYIHfMtp4r3eAE6aNUn-7" edge="1">
          <mxGeometry width="50" height="50" relative="1" as="geometry">
            <mxPoint x="442" y="524" as="sourcePoint" />
            <mxPoint x="553" y="563" as="targetPoint" />
            <Array as="points">
              <mxPoint x="459" y="563" />
              <mxPoint x="553" y="563" />
            </Array>
          </mxGeometry>
        </mxCell>
        <mxCell id="ceYIHfMtp4r3eAE6aNUn-7" value="Cat" style="rounded=0;whiteSpace=wrap;html=1;fillColor=#f5f5f5;strokeColor=#666666;fontColor=#333333;" parent="1" vertex="1">
          <mxGeometry x="415" y="607" width="87" height="29" as="geometry" />
        </mxCell>
        <mxCell id="ceYIHfMtp4r3eAE6aNUn-8" value="+getName()" style="rounded=0;whiteSpace=wrap;html=1;fillColor=#f5f5f5;strokeColor=#666666;fontColor=#333333;" parent="1" vertex="1">
          <mxGeometry x="481" y="464" width="120" height="21" as="geometry" />
        </mxCell>
        <mxCell id="ceYIHfMtp4r3eAE6aNUn-10" value="+getName()" style="rounded=0;whiteSpace=wrap;html=1;fillColor=#f5f5f5;strokeColor=#666666;fontColor=#333333;" parent="1" vertex="1">
          <mxGeometry x="415" y="636" width="87" height="21" as="geometry" />
        </mxCell>
        <mxCell id="ceYIHfMtp4r3eAE6aNUn-11" value="Lion" style="rounded=0;whiteSpace=wrap;html=1;fillColor=#f5f5f5;strokeColor=#666666;fontColor=#333333;" parent="1" vertex="1">
          <mxGeometry x="521" y="607" width="76" height="29" as="geometry" />
        </mxCell>
        <mxCell id="ceYIHfMtp4r3eAE6aNUn-12" value="+getName()" style="rounded=0;whiteSpace=wrap;html=1;fillColor=#f5f5f5;strokeColor=#666666;fontColor=#333333;" parent="1" vertex="1">
          <mxGeometry x="521" y="636" width="76" height="21" as="geometry" />
        </mxCell>
        <mxCell id="ceYIHfMtp4r3eAE6aNUn-13" value="" style="endArrow=block;html=1;rounded=1;dashed=1;endFill=0;jumpStyle=none;startSize=10;exitX=0.25;exitY=0;exitDx=0;exitDy=0;entryX=0.5;entryY=1;entryDx=0;entryDy=0;" parent="1" source="ceYIHfMtp4r3eAE6aNUn-11" target="ceYIHfMtp4r3eAE6aNUn-8" edge="1">
          <mxGeometry width="50" height="50" relative="1" as="geometry">
            <mxPoint x="592" y="601" as="sourcePoint" />
            <mxPoint x="587" y="507" as="targetPoint" />
          </mxGeometry>
        </mxCell>
        <mxCell id="ceYIHfMtp4r3eAE6aNUn-14" value="Dog" style="rounded=0;whiteSpace=wrap;html=1;fillColor=#f5f5f5;strokeColor=#666666;fontColor=#333333;" parent="1" vertex="1">
          <mxGeometry x="613" y="607" width="92" height="29" as="geometry" />
        </mxCell>
        <mxCell id="ceYIHfMtp4r3eAE6aNUn-15" value="+getName()" style="rounded=0;whiteSpace=wrap;html=1;fillColor=#f5f5f5;strokeColor=#666666;fontColor=#333333;" parent="1" vertex="1">
          <mxGeometry x="613" y="636" width="92" height="21" as="geometry" />
        </mxCell>
        <mxCell id="ceYIHfMtp4r3eAE6aNUn-16" value="" style="endArrow=none;html=1;rounded=1;dashed=1;endFill=0;jumpStyle=none;startSize=10;exitX=0.483;exitY=0.034;exitDx=0;exitDy=0;exitPerimeter=0;" parent="1" source="ceYIHfMtp4r3eAE6aNUn-14" edge="1">
          <mxGeometry width="50" height="50" relative="1" as="geometry">
            <mxPoint x="746" y="603" as="sourcePoint" />
            <mxPoint x="555" y="563" as="targetPoint" />
            <Array as="points">
              <mxPoint x="657" y="563" />
              <mxPoint x="555" y="563" />
            </Array>
          </mxGeometry>
        </mxCell>
        <mxCell id="ceYIHfMtp4r3eAE6aNUn-17" value="&lt;font style=&quot;font-size: 14px&quot;&gt;&amp;lt;&amp;lt; interface&amp;gt;&amp;gt;&lt;br&gt;AnimalFactory&lt;/font&gt;" style="rounded=0;whiteSpace=wrap;html=1;fillColor=#f5f5f5;strokeColor=#666666;fontColor=#333333;" parent="1" vertex="1">
          <mxGeometry x="86" y="423.5" width="253" height="40" as="geometry" />
        </mxCell>
        <mxCell id="ceYIHfMtp4r3eAE6aNUn-18" value="+getAnimal(string type): Animal" style="rounded=0;whiteSpace=wrap;html=1;fillColor=#f5f5f5;strokeColor=#666666;fontColor=#333333;" parent="1" vertex="1">
          <mxGeometry x="86" y="463.5" width="253" height="20.5" as="geometry" />
        </mxCell>
        <mxCell id="ceYIHfMtp4r3eAE6aNUn-19" value="...." style="rounded=0;whiteSpace=wrap;html=1;fillColor=#f5f5f5;strokeColor=#666666;fontColor=#333333;" parent="1" vertex="1">
          <mxGeometry x="720" y="607" width="92" height="29" as="geometry" />
        </mxCell>
        <mxCell id="ceYIHfMtp4r3eAE6aNUn-20" value="+getName()" style="rounded=0;whiteSpace=wrap;html=1;fillColor=#f5f5f5;strokeColor=#666666;fontColor=#333333;" parent="1" vertex="1">
          <mxGeometry x="720" y="636" width="92" height="21" as="geometry" />
        </mxCell>
        <mxCell id="ceYIHfMtp4r3eAE6aNUn-22" value="" style="endArrow=classic;html=1;strokeWidth=1;fontSize=11;exitX=1;exitY=1;exitDx=0;exitDy=0;entryX=0;entryY=0;entryDx=0;entryDy=0;" parent="1" source="ceYIHfMtp4r3eAE6aNUn-17" target="ceYIHfMtp4r3eAE6aNUn-8" edge="1">
          <mxGeometry width="50" height="50" relative="1" as="geometry">
            <mxPoint x="441" y="544" as="sourcePoint" />
            <mxPoint x="491" y="494" as="targetPoint" />
          </mxGeometry>
        </mxCell>
        <mxCell id="ceYIHfMtp4r3eAE6aNUn-24" value="" style="endArrow=none;dashed=1;html=1;fontSize=11;exitX=0.554;exitY=-0.002;exitDx=0;exitDy=0;exitPerimeter=0;startSize=10;endFill=0;" parent="1" source="ceYIHfMtp4r3eAE6aNUn-19" edge="1">
          <mxGeometry width="50" height="50" relative="1" as="geometry">
            <mxPoint x="409" y="597" as="sourcePoint" />
            <mxPoint x="552" y="563" as="targetPoint" />
            <Array as="points">
              <mxPoint x="771" y="563" />
            </Array>
          </mxGeometry>
        </mxCell>
        <mxCell id="ceYIHfMtp4r3eAE6aNUn-26" value="RandomAnimalFactory" style="rounded=0;whiteSpace=wrap;html=1;fillColor=#f5f5f5;strokeColor=#666666;fontColor=#333333;" parent="1" vertex="1">
          <mxGeometry x="16" y="628" width="187" height="29" as="geometry" />
        </mxCell>
        <mxCell id="ceYIHfMtp4r3eAE6aNUn-27" value="+getAnimal(string type): Animal" style="rounded=0;whiteSpace=wrap;html=1;fillColor=#f5f5f5;strokeColor=#666666;fontColor=#333333;" parent="1" vertex="1">
          <mxGeometry x="16" y="657" width="187" height="21" as="geometry" />
        </mxCell>
        <mxCell id="ceYIHfMtp4r3eAE6aNUn-30" value="ChooseAnimalFactory" style="rounded=0;whiteSpace=wrap;html=1;fillColor=#f5f5f5;strokeColor=#666666;fontColor=#333333;" parent="1" vertex="1">
          <mxGeometry x="250" y="694" width="187" height="29" as="geometry" />
        </mxCell>
        <mxCell id="ceYIHfMtp4r3eAE6aNUn-35" value="+createAnimal(string type): Animal" style="rounded=0;whiteSpace=wrap;html=1;fillColor=#f5f5f5;strokeColor=#666666;fontColor=#333333;" parent="1" vertex="1">
          <mxGeometry x="250" y="723" width="187" height="21" as="geometry" />
        </mxCell>
        <mxCell id="ceYIHfMtp4r3eAE6aNUn-36" value="" style="endArrow=block;html=1;rounded=1;dashed=1;endFill=0;jumpStyle=none;startSize=10;exitX=0.25;exitY=0;exitDx=0;exitDy=0;entryX=0.85;entryY=0.97;entryDx=0;entryDy=0;entryPerimeter=0;" parent="1" target="ceYIHfMtp4r3eAE6aNUn-18" edge="1">
          <mxGeometry width="50" height="50" relative="1" as="geometry">
            <mxPoint x="298" y="694" as="sourcePoint" />
            <mxPoint x="298.9999999999998" y="572" as="targetPoint" />
          </mxGeometry>
        </mxCell>
        <mxCell id="ceYIHfMtp4r3eAE6aNUn-39" value="" style="endArrow=none;dashed=1;html=1;fontSize=11;exitX=1;exitY=1;exitDx=0;exitDy=0;endFill=0;startSize=10;" parent="1" source="ceYIHfMtp4r3eAE6aNUn-26" edge="1">
          <mxGeometry width="50" height="50" relative="1" as="geometry">
            <mxPoint x="301" y="586" as="sourcePoint" />
            <mxPoint x="299" y="579" as="targetPoint" />
          </mxGeometry>
        </mxCell>
      </root>
    </mxGraphModel>
  </diagram>
</mxfile>
